<svg width="100" height="61" viewBox="0 0 100 61" fill="none" xmlns="http://www.w3.org/2000/svg">
<path fill-rule="evenodd" clip-rule="evenodd" d="M99.993 30.3203V30.3345L69.4873 38.5286V40.386C69.4873 46.3698 74.3213 51.2202 80.2842 51.2202C84.9522 51.2202 88.9281 48.2485 90.4351 44.0867L99.926 41.3395V41.3496L99.947 41.3435C99.448 51.7399 90.8811 60.0159 80.3842 60.0159C69.5853 60.0159 60.7424 51.2576 60.7114 40.4426V19.9745C60.7034 13.9978 55.9184 9.1545 49.9435 9.1545C43.9696 9.1545 39.1266 13.9978 39.1186 19.9745V34.7298V55.9654H30.3427V19.9745C30.3347 13.9978 25.4907 9.1545 19.5168 9.1545C13.5429 9.1545 8.69891 13.9978 8.69191 19.9745H8.69091V55.9654H0V19.9887C0 9.14743 8.76991 0.358765 19.5868 0.358765C25.7127 0.358765 31.1807 3.17777 34.7717 7.5903C38.3636 3.17777 43.8316 0.358765 49.9565 0.358765C56.0984 0.358765 61.5794 3.19294 65.1704 7.62569C68.7613 3.19294 74.2423 0.358765 80.3842 0.358765C91.1961 0.358765 99.963 9.14035 99.971 19.9745H100V26.8602V30.3183L99.993 30.3203ZM91.1081 19.9745C91.1001 13.9978 86.2691 9.1545 80.3112 9.1545C74.3533 9.1545 69.5233 13.9978 69.5153 19.9745V29.4224L91.1081 23.6236V19.9745ZM30.3427 55.9654H8.69091H30.3427Z" fill="white"/>
</svg>
